<svg width="24" height="24" viewBox="0 0 24 24" fill="none" xmlns="http://www.w3.org/2000/svg">
  <path d="M12 22.75C6.07 22.75 1.25 17.93 1.25 12C1.25 6.07 6.07 1.25 12 1.25C12.41 1.25 12.75 1.59 12.75 2C12.75 2.41 12.41 2.75 12 2.75C6.9 2.75 2.75 6.9 2.75 12C2.75 17.1 6.9 21.25 12 21.25C17.1 21.25 21.25 17.1 21.25 12C21.25 11.59 21.59 11.25 22 11.25C22.41 11.25 22.75 11.59 22.75 12C22.75 17.93 17.93 22.75 12 22.75Z" fill="#667085"/>
  <path d="M22 6.75C21.59 6.75 21.25 6.41 21.25 6V2.75H18C17.59 2.75 17.25 2.41 17.25 2C17.25 1.59 17.59 1.25 18 1.25H22C22.41 1.25 22.75 1.59 22.75 2V6C22.75 6.41 22.41 6.75 22 6.75Z" fill="#667085"/>
  <path d="M16.9999 7.74994C16.8099 7.74994 16.6199 7.67994 16.4699 7.52994C16.1799 7.23994 16.1799 6.75994 16.4699 6.46994L21.4699 1.46994C21.7599 1.17994 22.2399 1.17994 22.5299 1.46994C22.8199 1.75994 22.8199 2.23994 22.5299 2.52994L17.5299 7.52994C17.3799 7.67994 17.1899 7.74994 16.9999 7.74994Z" fill="#667085"/>
  <text x="8.5" y="17" font-family="Arial" font-size="12" fill="#667085">₹</text>
</svg>
